<svg xmlns="http://www.w3.org/2000/svg" viewBox="0 0 400 120" fill="none">
  <g fill="#F04A2D">
    <!-- Stylized A (triangle/mountain) -->
    <path d="M0 110 L55 5 L110 110 L85 110 L55 40 L25 110 Z"/>
    <!-- R -->
    <path d="M115 110 L115 10 L170 10 Q195 10 195 35 Q195 55 175 60 L200 110 L175 110 L152 63 L140 63 L140 110 Z M140 30 L140 48 L165 48 Q175 48 175 39 Q175 30 165 30 Z"/>
    <!-- Z -->
    <path d="M205 10 L280 10 L280 30 L230 90 L282 90 L282 110 L203 110 L203 90 L255 30 L205 30 Z"/>
    <!-- A -->
    <path d="M285 110 L340 5 L395 110 L370 110 L355 75 L325 75 L310 110 Z M340 40 L330 60 L350 60 Z"/>
  </g>
</svg>
